<svg width="22" height="22" xmlns="http://www.w3.org/2000/svg"><g fill="none" fill-rule="evenodd"><path d="M-1-1h24v24H-1z"/><path d="M20.61 7.852h-1.344V7.44c0-.633-.499-1.149-1.11-1.149h-4.039c-.169-.323-.422-.557-.769-.557-5.887 0-11.177-5.1-11.177-5.1a1.104 1.104 0 0 0-1.629.972v18.776a1.105 1.105 0 0 0 1.669.95s4.887-6.104 11.205-6.104c.324 0 .556-.218.71-.52h.097c.032 1.413-.298 2.918-.605 4.003a1.493 1.493 0 0 0 1.432 1.896c.337 0 .673-.117.95-.345 1.621-1.347 2.228-2.896 2.453-3.958.14-.663.152-1.224.136-1.594.084-.108.164-.225.241-.342.439-.673.439-.933.439-1.057v-.53h1.34a.843.843 0 0 0 .844-.844v-3.24a.843.843 0 0 0-.844-.845zm-7.918 5.712c-1.437.091-2.897.448-4.352 1.064-1.32.56-2.637 1.336-3.917 2.306a23.096 23.096 0 0 0-2.196 1.899V2.905A25.531 25.531 0 0 0 4.66 4.618c1.294.802 2.6 1.444 3.881 1.905 1.411.509 2.799.804 4.135.88v.04c0 .053.004.105.014.154v5.941c.002.01.002.017.002.026zm4.887-.394a3.875 3.875 0 0 1-.317.495.848.848 0 0 0-.382.865c0 .004.097.604-.077 1.425-.201.956-.666 1.81-1.38 2.545.34-1.371.625-3.134.424-4.741a.845.845 0 0 0-.837-.739h-.6v-.7a.865.865 0 0 0-.03-.223V7.979h3.199v5.191zm2.187-2.076h-.5V9.54h.5v1.554z" fill="#7F7F7F" fill-rule="nonzero"/></g></svg>