<?xml version="1.0" encoding="UTF-8"?>
<svg width="24px" height="24px" viewBox="0 0 24 24" version="1.1" xmlns="http://www.w3.org/2000/svg" xmlns:xlink="http://www.w3.org/1999/xlink">
    <g stroke="none" stroke-width="1" fill="none" fill-rule="evenodd">
        <g transform="translate(-1379.000000, -79.000000)" fill="#fff">
            <path d="M1391,103 C1384.37188,103 1379,97.628125 1379,91 C1379,84.371875 1384.37188,79 1391,79 C1397.62812,79 1403,84.371875 1403,91 C1403,97.628125 1397.62812,103 1391,103 L1391,103 Z M1398.29141,83.7085938 C1397.34453,82.7617188 1396.24062,82.0164063 1395.0125,81.4984375 C1393.74219,80.959375 1392.39219,80.6875 1391,80.6875 C1389.60781,80.6875 1388.25781,80.959375 1386.9875,81.4960938 C1385.75938,82.0164063 1384.65781,82.759375 1383.70859,83.70625 C1382.76172,84.653125 1382.01641,85.7570312 1381.49844,86.9851562 C1380.95937,88.2578125 1380.6875,89.6078125 1380.6875,91 C1380.6875,92.3921875 1380.95937,93.7421875 1381.49609,95.0125 C1382.01641,96.240625 1382.75938,97.3421875 1383.70625,98.2914062 C1384.65313,99.2382812 1385.75703,99.9835937 1386.98516,100.501562 C1388.25781,101.040625 1389.60781,101.3125 1391,101.3125 C1392.39219,101.3125 1393.74219,101.040625 1395.0125,100.503906 C1396.24062,99.9835937 1397.34219,99.240625 1398.29141,98.29375 C1399.23828,97.346875 1399.98359,96.2429687 1400.50156,95.0148437 C1401.04063,93.7421875 1401.3125,92.3921875 1401.3125,91 C1401.3125,89.6078125 1401.04063,88.2578125 1400.50391,86.9875 C1399.98359,85.759375 1399.24062,84.6554687 1398.29141,83.7085938 L1398.29141,83.7085938 Z M1390.87812,87.4398438 C1390.85,87.4398438 1390.82187,87.4421875 1390.79375,87.4445313 C1390.32969,87.4890625 1389.99219,87.9039063 1390.03672,88.3679688 C1390.15156,89.5375 1391.00937,90.4820313 1391.95391,91.4265625 C1393.46563,92.9382813 1393.49141,93.41875 1393.51719,93.9273438 C1393.54766,94.5203125 1393.32969,95.0945313 1392.89844,95.546875 C1392.40859,96.0625 1391.71484,96.3578125 1390.99531,96.3578125 L1390.99062,96.3578125 C1389.60547,96.3554688 1388.47578,95.2257813 1388.47578,93.8382813 C1388.47578,93.371875 1388.09844,92.9945313 1387.63203,92.9945313 C1387.16562,92.9945313 1386.78828,93.371875 1386.78828,93.8382813 C1386.78828,94.9609375 1387.22422,96.015625 1388.01641,96.8101563 C1388.80859,97.6046875 1389.86328,98.0429688 1390.98594,98.0453125 C1392.16953,98.0476563 1393.31328,97.5601563 1394.12188,96.709375 C1394.87422,95.9171875 1395.25859,94.8976563 1395.20234,93.8382813 C1395.14375,92.753125 1394.81094,91.8976563 1393.14687,90.2335938 C1392.30312,89.3898438 1391.77109,88.7570313 1391.71719,88.2015625 C1391.675,87.765625 1391.30703,87.4398438 1390.87812,87.4398438 L1390.87812,87.4398438 Z M1389.83281,84.971875 C1389.83281,85.3344438 1390.02624,85.6694711 1390.34023,85.8507555 C1390.65423,86.0320399 1391.04108,86.0320399 1391.35508,85.8507555 C1391.66907,85.6694711 1391.8625,85.3344438 1391.8625,84.971875 C1391.8625,84.4113923 1391.40814,83.9570312 1390.84766,83.9570312 C1390.28717,83.9570312 1389.83281,84.4113923 1389.83281,84.971875 L1389.83281,84.971875 Z" id="Shape" transform="translate(1391.000000, 91.000000) scale(1, -1) translate(-1391.000000, -91.000000) "></path>
        </g>
    </g>
</svg>