<svg width="24" height="24" xmlns="http://www.w3.org/2000/svg"><g transform="translate(-12 -12)" fill="none" fill-rule="evenodd"><circle stroke="#BFBFBF" stroke-width=".7" cx="24" cy="24" r="23.7"/><path d="M12 12h24v24H12z"/><path d="M15 18a1.5 1.5 0 1 0 3 0 1.5 1.5 0 0 0-3 0zm17.1.7H20.5a.8.8 0 0 1 0-1.7h11.7a.8.8 0 1 1 0 1.7zM15 24a1.5 1.5 0 1 0 3 0 1.5 1.5 0 0 0-3 0zm17.1.7H20.5a.8.8 0 0 1 0-1.7h11.7a.8.8 0 1 1 0 1.7zM15 30a1.5 1.5 0 1 0 3 0 1.5 1.5 0 0 0-3 0zm17.1.7H20.5a.8.8 0 0 1 0-1.7h11.7a.8.8 0 1 1 0 1.7z" fill="#BFBFBF" fill-rule="nonzero"/></g></svg>