<?xml version="1.0" encoding="UTF-8"?>
<svg width="248px" height="248px" viewBox="0 0 248 248" version="1.1" xmlns="http://www.w3.org/2000/svg" xmlns:xlink="http://www.w3.org/1999/xlink">
    <!-- Generator: Sketch 50.2 (55047) - http://www.bohemiancoding.com/sketch -->
    <title>Group Copy</title>
    <desc>Created with Sketch.</desc>
    <defs>
        <circle id="path-1" cx="120" cy="120" r="120"></circle>
        <path d="M12.6507493,17.5438596 L26.8229349,17.5438596 C31.221876,17.5438596 32.8170384,18.0018808 34.4252255,18.8619486 C36.0334126,19.7220165 37.2955273,20.9841312 38.1555952,22.5923183 C39.0156631,24.2005055 39.4736842,25.7956678 39.4736842,30.194609 L39.4736842,53.1387243 C39.4736842,57.5376655 39.0156631,59.1328279 38.1555952,60.741015 C37.2955273,62.3492021 36.0334126,63.6113168 34.4252255,64.4713847 C32.8170384,65.3314526 31.221876,65.7894737 26.8229349,65.7894737 L12.6507493,65.7894737 C8.25180819,65.7894737 6.65664583,65.3314526 5.0484587,64.4713847 C3.44027157,63.6113168 2.17815689,62.3492021 1.318089,60.741015 C0.458021108,59.1328279 -1.57837886e-15,57.5376655 -2.11709378e-15,53.1387243 L-1.4356199e-15,30.194609 C-1.97433482e-15,25.7956678 0.458021108,24.2005055 1.318089,22.5923183 C2.17815689,20.9841312 3.44027157,19.7220165 5.0484587,18.8619486 C6.65664583,18.0018808 8.25180819,17.5438596 12.6507493,17.5438596 Z M139.843732,17.5438596 L154.015917,17.5438596 C158.414858,17.5438596 160.010021,18.0018808 161.618208,18.8619486 C163.226395,19.7220165 164.48851,20.9841312 165.348578,22.5923183 C166.208646,24.2005055 166.666667,25.7956678 166.666667,30.194609 L166.666667,53.1387243 C166.666667,57.5376655 166.208646,59.1328279 165.348578,60.741015 C164.48851,62.3492021 163.226395,63.6113168 161.618208,64.4713847 C160.010021,65.3314526 158.414858,65.7894737 154.015917,65.7894737 L139.843732,65.7894737 C135.444791,65.7894737 133.849628,65.3314526 132.241441,64.4713847 C130.633254,63.6113168 129.371139,62.3492021 128.511071,60.741015 C127.651004,59.1328279 127.192982,57.5376655 127.192982,53.1387243 L127.192982,30.194609 C127.192982,25.7956678 127.651004,24.2005055 128.511071,22.5923183 C129.371139,20.9841312 130.633254,19.7220165 132.241441,18.8619486 C133.849628,18.0018808 135.444791,17.5438596 139.843732,17.5438596 Z" id="path-3"></path>
        <path d="M10,0 L132.54386,2.66453526e-14 C138.066707,2.5630822e-14 142.54386,4.4771525 142.54386,10 L142.54386,91.7425789 C142.54386,113.739242 125.445064,131.946857 103.49175,133.327134 C86.7392187,134.38042 75.9992786,134.907063 71.2719298,134.907063 C66.544581,134.907063 55.8046409,134.38042 39.0521095,133.327134 L39.0521096,133.327134 C17.0987951,131.946857 -5.23702838e-14,113.739242 -3.55271368e-14,91.7425788 L2.84217094e-14,10 C3.26506296e-14,4.4771525 4.4771525,1.52253853e-14 10,1.42108547e-14 Z" id="path-5"></path>
        <ellipse id="path-7" cx="16.6666667" cy="17.1875" rx="16.6666667" ry="17.1875"></ellipse>
        <ellipse id="path-9" cx="16.6666667" cy="17.1875" rx="16.6666667" ry="17.1875"></ellipse>
    </defs>
    <g id="Page-1" stroke="none" stroke-width="1" fill="none" fill-rule="evenodd">
        <g id="Colors" transform="translate(-79.000000, -903.000000)">
            <g id="Group-Copy" transform="translate(83.000000, 907.000000)">
                <g id="Group-5-Copy">
                    <mask id="mask-2" fill="white">
                        <use xlink:href="#path-1"></use>
                    </mask>
                    <circle stroke="#CCCCCC" stroke-width="3.33333333" cx="120" cy="120" r="121.666667"></circle>
                    <g id="Group-5" mask="url(#mask-2)">
                        <g transform="translate(36.666667, 71.000000)">
                            <rect id="Rectangle" fill="#2C5F7F" x="70" y="125.666667" width="26.3157895" height="17.4257426"></rect>
                            <path d="M42.6598055,141.838284 L124.006861,141.838284 C132.427837,141.838284 139.254386,148.664833 139.254386,157.085809 L139.254386,160.27193 C139.254386,166.933259 133.854312,172.333333 127.192982,172.333333 L39.4736842,172.333333 C32.812355,172.333333 27.4122807,166.933259 27.4122807,160.27193 L27.4122807,157.085809 C27.4122807,148.664833 34.2388301,141.838284 42.6598055,141.838284 Z" id="Rectangle-16" fill="#DEE3E6"></path>
                            <path d="M42.6598055,141.838284 L124.006861,141.838284 C132.427837,141.838284 139.254386,148.664833 139.254386,157.085809 L139.254386,157.198405 C139.254386,163.859734 133.854312,169.259808 127.192982,169.259808 C126.287139,169.259808 125.384179,169.157762 124.501183,168.955601 L111.29386,165.931797 C92.89158,161.718612 73.7750866,161.718612 55.372807,165.931797 L42.1654835,168.955601 C35.6721632,170.442241 29.2031274,166.383524 27.7164876,159.890204 C27.5143265,159.007208 27.4122807,158.104248 27.4122807,157.198405 L27.4122807,157.085809 C27.4122807,148.664833 34.2388301,141.838284 42.6598055,141.838284 Z" id="Rectangle-16" fill="#ECF0F1"></path>
                            <path d="M83.1499998,148.697225 C93.5323138,148.697225 96.2999996,146.015232 96.2999996,142.333333 C96.2999996,138.651435 90.4125441,135.666667 83.1499998,135.666667 C75.8874554,135.666667 70,138.651435 70,142.333333 C70,146.015232 72.7676858,148.697225 83.1499998,148.697225 Z" id="Oval-5" fill="#2C5F7F"></path>
                            <g id="Ears" stroke-width="1" fill="none" transform="translate(0.000000, 23.933993)">
                                <mask id="mask-4" fill="white">
                                    <use xlink:href="#path-3"></use>
                                </mask>
                                <use fill="#0076DE" xlink:href="#path-3"></use>
                                <g id="↳-Color-Sides" mask="url(#mask-4)" fill="#0091EA">
                                    <g transform="translate(-15.350877, 0.000000)" id="Color/07-Light-Blue/A400">
                                        <rect x="0" y="5.68434189e-14" width="197.368421" height="83.3333333"></rect>
                                    </g>
                                </g>
                                <rect id="Shadow" fill-opacity="0.1" fill="#000000" mask="url(#mask-4)" x="-15.3508772" y="41.6666667" width="197.368421" height="41.6666667"></rect>
                            </g>
                            <g id="Face-Shape" stroke-width="1" fill="none" transform="translate(12.061404, 0.254125)">
                                <mask id="mask-6" fill="white">
                                    <use xlink:href="#path-5"></use>
                                </mask>
                                <use id="Shape" fill="#ECF0F1" xlink:href="#path-5"></use>
                                <g id="↳-Color-Face" mask="url(#mask-6)">
                                    <g transform="translate(-8.859649, -2.178218)" id="Color/19-Blue-Grey/200">
                                        <rect fill="#ECF0F1" x="6.66666667" y="0" width="146.929825" height="135.049505"></rect>
                                        <path d="M6.66666667,67.5247525 C6.66666667,67.5247525 -21.5187992,129.156983 80.1315789,129.156983 C181.781957,129.156983 153.596491,67.5247525 153.596491,67.5247525 L153.596491,135.049505 C153.596491,135.049505 104.721153,138.876568 80.1315789,138.876568 C55.5420045,138.876568 6.66666667,135.049505 6.66666667,135.049505 L6.66666667,67.5247525 Z" fill="#DEE3E6"></path>
                                    </g>
                                </g>
                            </g>
                            <g id="Mouth" stroke-width="1" fill="none" transform="translate(68.333333, 90.716172)" fill-opacity="0.6">
                                <path d="M2.99269596,5.86037745 C2.72533559,4.68705812 3.46620771,3.52061569 4.64748017,3.25505537 C5.82875262,2.98949505 7.00310156,3.72537912 7.27046193,4.89869845 C8.11406766,8.60088848 11.0544448,10.8250825 15,10.8250825 C18.9455552,10.8250825 21.8859323,8.60088848 22.7295381,4.89869845 C22.9968984,3.72537912 24.1712474,2.98949505 25.3525198,3.25505537 C26.5337923,3.52061569 27.2746644,4.68705812 27.007304,5.86037745 C25.7016974,11.5900728 20.9538186,15.1815182 15,15.1815182 C9.04618145,15.1815182 4.29830258,11.5900728 2.99269596,5.86037745 Z" id="Thank-You-For-Your-Cooperation" fill="#000000" fill-rule="nonzero"></path>
                            </g>
                        </g>
                    </g>
                </g>
                <g id="Group-7" transform="translate(73.333333, 96.666667)">
                    <path d="M5.29964888,2.53913869 L9.082679,1.5625 C13.0526884,0.537590169 17.2177741,0.53622285 21.1884555,1.5585259 L25.0029973,2.54062879 C26.3389679,2.88459164 27.2727273,4.08921091 27.2727273,5.46875 L27.2727273,5.46875 C27.2727273,6.47177659 26.4596136,7.2848903 25.456587,7.2848903 C25.3036358,7.2848903 25.1512972,7.2655688 25.003189,7.22738466 L21.2121212,6.25 C17.2367132,5.22509011 13.0663171,5.22509011 9.09090909,6.25 L5.29984133,7.22738466 C4.32857423,7.47778946 3.33821348,6.8934151 3.08780868,5.922148 C3.04962453,5.77403979 3.03030303,5.6217012 3.03030303,5.46875 L3.03030303,5.46875 C3.03030303,4.08901489 3.96371453,2.88402762 5.29964888,2.53913869 Z" id="Rectangle-2" fill="#AFB0B0"></path>
                    <g id="Oval-3" transform="translate(0.000000, 15.625000)">
                        <mask id="mask-8" fill="white">
                            <use xlink:href="#path-7"></use>
                        </mask>
                        <ellipse stroke="#AFB0B0" stroke-width="3.16666667" cx="16.6666667" cy="17.1875" rx="18.25" ry="18.7708333"></ellipse>
                        <ellipse fill="#616161" mask="url(#mask-8)" cx="4.54545455" cy="32.8125" rx="16.6666667" ry="17.1875"></ellipse>
                    </g>
                    <ellipse id="Oval-2" fill="#FFFFFF" cx="21.2121212" cy="28.125" rx="3.03030303" ry="3.125"></ellipse>
                </g>
                <g id="Group-7-Copy" transform="translate(133.333333, 96.666667)">
                    <path d="M5.29964888,2.53913869 L9.082679,1.5625 C13.0526884,0.537590169 17.2177741,0.53622285 21.1884555,1.5585259 L25.0029973,2.54062879 C26.3389679,2.88459164 27.2727273,4.08921091 27.2727273,5.46875 L27.2727273,5.46875 C27.2727273,6.47177659 26.4596136,7.2848903 25.456587,7.2848903 C25.3036358,7.2848903 25.1512972,7.2655688 25.003189,7.22738466 L21.2121212,6.25 C17.2367132,5.22509011 13.0663171,5.22509011 9.09090909,6.25 L5.29984133,7.22738466 C4.32857423,7.47778946 3.33821348,6.8934151 3.08780868,5.922148 C3.04962453,5.77403979 3.03030303,5.6217012 3.03030303,5.46875 L3.03030303,5.46875 C3.03030303,4.08901489 3.96371453,2.88402762 5.29964888,2.53913869 Z" id="Rectangle-2" fill="#AFB0B0"></path>
                    <g id="Oval-3" transform="translate(0.000000, 15.625000)">
                        <mask id="mask-10" fill="white">
                            <use xlink:href="#path-9"></use>
                        </mask>
                        <ellipse stroke="#AFB0B0" stroke-width="3.16666667" cx="16.6666667" cy="17.1875" rx="18.25" ry="18.7708333"></ellipse>
                        <ellipse fill="#616161" mask="url(#mask-10)" cx="4.54545455" cy="32.8125" rx="16.6666667" ry="17.1875"></ellipse>
                    </g>
                    <ellipse id="Oval-2" fill="#FFFFFF" cx="21.2121212" cy="28.125" rx="3.03030303" ry="3.125"></ellipse>
                </g>
                <g id="Group-6" transform="translate(93.333333, 23.333333)">
                    <path d="M4.98983437,43.6520071 L18.5606723,44.5187031 C25.0691499,44.9343643 31.5975168,44.9343643 38.1059944,44.5187031 L51.6768323,43.6520071 C54.2622574,43.4868899 56.4920124,45.4489372 56.6571296,48.0343623 C56.663486,48.1338926 56.6666667,48.2336003 56.6666667,48.3333333 L56.6666667,48.3333333 C56.6666667,51.1895319 54.5204487,53.5896373 51.6820095,53.9076518 C40.6405531,55.1447151 32.8576613,55.7632492 28.3333333,55.7632492 C23.8090054,55.7632492 16.0261135,55.1447151 4.98465775,53.9076469 L4.9846572,53.9076518 C2.14621801,53.5896373 3.49783443e-16,51.1895319 0,48.3333333 L0,48.3333333 C-3.17268305e-16,45.742641 2.10017107,43.6424699 4.69086339,43.6424699 C4.79059643,43.6424699 4.8903041,43.6456506 4.98983437,43.6520071 Z" id="Rectangle-4" fill="#F57F17"></path>
                    <path d="M26.6666667,0 L30,3.55271368e-15 C39.2047458,1.8618293e-15 46.6666667,7.46192084 46.6666667,16.6666667 L46.6666667,36.6666667 C46.6666667,40.348565 43.6818983,43.3333333 40,43.3333333 L16.6666667,43.3333333 C12.9847683,43.3333333 10,40.348565 10,36.6666667 L10,16.6666667 C10,7.46192084 17.4619208,5.24359806e-15 26.6666667,3.55271368e-15 Z" id="Rectangle-5" fill="#F9B273"></path>
                    <rect id="Rectangle-6" fill="#DC8D46" x="26.6666667" y="36.6666667" width="3.33333333" height="6.66666667"></rect>
                    <path d="M20,17.0533333 C20,15.9066609 20.33333,15.0000033 21,14.3333333 C21.66667,13.6666633 22.5733276,13.3333333 23.72,13.3333333 L36.92,13.3333333 C37.1066676,13.6266681 37.2733326,14.0133309 37.42,14.4933333 C37.5666674,14.9733357 37.64,15.4799973 37.64,16.0133333 C37.64,17.0266717 37.4200022,17.7466645 36.98,18.1733333 C36.5399978,18.6000021 35.9600036,18.8133333 35.24,18.8133333 L26.8,18.8133333 L26.8,22.5333333 L35.8,22.5333333 C35.9866676,22.8266681 36.1533326,23.2066643 36.3,23.6733333 C36.4466674,24.1400023 36.52,24.6399973 36.52,25.1733333 C36.52,26.1866717 36.3066688,26.9066645 35.88,27.3333333 C35.4533312,27.7600021 34.8800036,27.9733333 34.16,27.9733333 L26.8,27.9733333 L26.8,32.1733333 L37.08,32.1733333 C37.2666676,32.4666681 37.4333326,32.8533309 37.58,33.3333333 C37.7266674,33.8133357 37.8,34.3199973 37.8,34.8533333 C37.8,35.8666717 37.5800022,36.5933311 37.14,37.0333333 C36.6999978,37.4733355 36.1200036,37.6933333 35.4,37.6933333 L23.72,37.6933333 C22.5733276,37.6933333 21.66667,37.3600033 21,36.6933333 C20.33333,36.0266633 20,35.1200057 20,33.9733333 L20,17.0533333 Z" id="E" fill="#FFFFFF" opacity="0.800000012"></path>
                    <path d="M27.0614035,3.81188119 C32.4688032,3.81188119 37.3311871,6.12966038 40.6965019,9.81957535" id="Reflection" stroke="#FFFFFF" stroke-width="2.19298246" stroke-linecap="round"></path>
                </g>
            </g>
        </g>
    </g>
</svg>