<svg width="76" height="75" xmlns="http://www.w3.org/2000/svg" xmlns:xlink="http://www.w3.org/1999/xlink"><defs><filter x="-2.5%" y="-2.1%" width="105%" height="104.9%" filterUnits="objectBoundingBox" id="a"><feOffset dy="2" in="SourceAlpha" result="shadowOffsetOuter1"/><feGaussianBlur stdDeviation="4" in="shadowOffsetOuter1" result="shadowBlurOuter1"/><feColorMatrix values="0 0 0 0 0.600526148 0 0 0 0 0.600526148 0 0 0 0 0.600526148 0 0 0 0.5 0" in="shadowBlurOuter1" result="shadowMatrixOuter1"/><feMerge><feMergeNode in="shadowMatrixOuter1"/><feMergeNode in="SourceGraphic"/></feMerge></filter><path id="b" d="M0 0h80v80H0z"/></defs><g filter="url(#a)" transform="translate(-220 -68)" fill="none" fill-rule="evenodd"><rect fill="#FFF" width="517" height="530" rx="4"/><g transform="translate(218 66)"><mask id="c" fill="#fff"><use xlink:href="#b"/></mask><g mask="url(#c)"><g transform="translate(10.667 8)"><path d="M39.81 10.476H27.133a5.24 5.24 0 0 1-10.266 0H4.19A4.202 4.202 0 0 0 0 14.665v39.811a4.202 4.202 0 0 0 4.19 4.189h35.62A4.202 4.202 0 0 0 44 54.476V14.665a4.202 4.202 0 0 0-4.19-4.189" fill="#EBEBEB"/><rect fill="#FFFCEE" x="4.19" y="18.857" width="35.619" height="35.619" rx="4.19"/><path fill="#F1C40F" d="M48.19 16.762h10.477v33.526H48.19z"/><path fill="#868686" d="M48.19 13.107h10.477v4.191H48.19z"/><path fill="#DDD" d="M53.429 58.667l5.238-8.381H48.19l5.239 8.381"/><path d="M53.43 6.822c-2.893 0-5.24 1.064-5.24 2.992v3.293h10.477V9.814c0-1.928-2.345-2.992-5.236-2.992" fill="#FB748A"/><path d="M29.105 9.575c.203-.679.346-1.38.346-2.124A7.452 7.452 0 0 0 21.998 0a7.45 7.45 0 0 0-7.449 7.45c0 .744.143 1.446.346 2.123-2.485 1.708-4.069 4.293-4.069 7.189h22.348c0-2.896-1.586-5.48-4.069-7.187zM22 11.174a3.723 3.723 0 1 1 0-7.449 3.727 3.727 0 0 1 3.725 3.726A3.726 3.726 0 0 1 22 11.174z" fill="#A0A0A0"/></g></g></g></g></svg>