<svg width="24" height="24" xmlns="http://www.w3.org/2000/svg"><g transform="translate(-12 -12)" stroke="#BFBFBF" fill="none" fill-rule="evenodd"><circle stroke-width=".7" cx="24.5" cy="24" r="23.7"/><path d="M24.5 12a4.8 4.8 0 0 0-4.7 4.9v7.7c0 2.7 2.1 5 4.7 5s4.7-2.3 4.7-5V17c0-2.7-2.1-4.9-4.7-4.9zm0 1.3c2 0 3.4 1.6 3.4 3.6v7.7c0 2-1.5 3.6-3.4 3.6-2 0-3.4-1.6-3.4-3.6V17c0-2 1.5-3.6 3.4-3.6zm-6.9 8.1c-.3 0-.6.3-.6.7v2.6c0 4 3 7.4 6.9 7.7v2.3h-2.5c-.4 0-.6.3-.6.7 0 .3.2.6.6.6h6.2c.4 0 .6-.3.6-.6 0-.4-.2-.7-.6-.7h-2.5v-2.3a7.7 7.7 0 0 0 6.9-7.7V22c0-.4-.3-.7-.6-.7-.4 0-.7.3-.7.7v2.6c0 3.6-2.7 6.4-6.2 6.4a6.3 6.3 0 0 1-6.2-6.4V22c0-.4-.3-.7-.7-.7z" stroke-width=".2" fill="#BFBFBF" fill-rule="nonzero"/></g></svg>