<svg width="110" height="110" viewBox="0 0 110 110" xmlns="http://www.w3.org/2000/svg"><path d="M55 1c-11.379 0-20.625 9.723-20.625 21.69v34.702c0 11.966 9.246 21.69 20.625 21.69s20.625-9.724 20.625-21.69V22.689C75.625 10.723 66.379 1 55 1zm0 5.784c8.427 0 15.125 7.044 15.125 15.905v34.703c0 8.862-6.698 15.905-15.125 15.905s-15.125-7.043-15.125-15.905V22.689c0-8.861 6.698-15.905 15.125-15.905zM24.793 42.932c-1.468-.024-2.816 1.393-2.793 2.937v11.568c0 18.207 13.296 33.107 30.25 34.567v10.212h-11c-1.519 0-2.75 1.295-2.75 2.892S39.731 108 41.25 108h27.5c1.519 0 2.75-1.295 2.75-2.892s-1.231-2.892-2.75-2.892h-11V92.004C74.704 90.544 88 75.644 88 57.437V45.869c.02-1.527-1.297-2.933-2.75-2.933s-2.77 1.406-2.75 2.933v11.568c0 16.071-12.218 28.919-27.5 28.919S27.5 73.508 27.5 57.437V45.869c.023-1.514-1.267-2.913-2.707-2.937z" fill="#2296F3" fill-rule="nonzero"/></svg>